<?xml version="1.0" encoding="utf-8"?>
<!-- Generator: Adobe Illustrator 17.1.0, SVG Export Plug-In . SVG Version: 6.00 Build 0)  -->
<!DOCTYPE svg PUBLIC "-//W3C//DTD SVG 1.1//EN" "http://www.w3.org/Graphics/SVG/1.1/DTD/svg11.dtd">
<svg version="1.1" xmlns="http://www.w3.org/2000/svg" xmlns:xlink="http://www.w3.org/1999/xlink" x="0px" y="0px"
	 viewBox="0 0 792.001 576.002" enable-background="new 0 0 792.001 576.002" xml:space="preserve">
<g id="Layer_1" display="none">
</g>
<g id="checkers">
	<rect x="0.001" y="504.002" fill="#E6E7E8" width="88" height="72"/>
	<rect x="0.001" y="360.002" fill="#E6E7E8" width="88" height="72"/>
	<rect x="0.001" y="216.002" fill="#E6E7E8" width="88" height="72"/>
	<rect x="0.001" y="72.002" fill="#E6E7E8" width="88" height="72"/>
	<rect x="88.001" y="0.002" fill="#E6E7E8" width="88" height="72"/>
	<rect x="88.001" y="432.002" fill="#E6E7E8" width="88" height="72"/>
	<rect x="88.001" y="288.002" fill="#E6E7E8" width="88" height="72"/>
	<rect x="88.001" y="144.002" fill="#E6E7E8" width="88" height="72"/>
	<rect x="176.001" y="504.002" fill="#E6E7E8" width="88" height="72"/>
	<rect x="176.001" y="360.002" fill="#E6E7E8" width="88" height="72"/>
	<rect x="176.001" y="216.002" fill="#E6E7E8" width="88" height="72"/>
	<rect x="176.001" y="72.002" fill="#E6E7E8" width="88" height="72"/>
	<rect x="264.001" y="0.002" fill="#E6E7E8" width="88" height="72"/>
	<rect x="264.001" y="432.002" fill="#E6E7E8" width="88" height="72"/>
	<rect x="264.001" y="288.002" fill="#E6E7E8" width="88" height="72"/>
	<rect x="264.001" y="144.002" fill="#E6E7E8" width="88" height="72"/>
	<rect x="352.001" y="504.002" fill="#E6E7E8" width="88" height="72"/>
	<rect x="352.001" y="360.002" fill="#E6E7E8" width="88" height="72"/>
	<rect x="352.001" y="216.002" fill="#E6E7E8" width="88" height="72"/>
	<rect x="352.001" y="72.002" fill="#E6E7E8" width="88" height="72"/>
	<rect x="440.001" y="0.002" fill="#E6E7E8" width="88" height="72"/>
	<rect x="440.001" y="432.002" fill="#E6E7E8" width="88" height="72"/>
	<rect x="440.001" y="288.002" fill="#E6E7E8" width="88" height="72"/>
	<rect x="440.001" y="144.002" fill="#E6E7E8" width="88" height="72"/>
	<rect x="528.001" y="504.002" fill="#E6E7E8" width="88" height="72"/>
	<rect x="528.001" y="360.002" fill="#E6E7E8" width="88" height="72"/>
	<rect x="528.001" y="216.002" fill="#E6E7E8" width="88" height="72"/>
	<rect x="528.001" y="72.002" fill="#E6E7E8" width="88" height="72"/>
	<rect x="616.001" y="0.002" fill="#E6E7E8" width="88" height="72"/>
	<rect x="616.001" y="432.002" fill="#E6E7E8" width="88" height="72"/>
	<rect x="616.001" y="288.002" fill="#E6E7E8" width="88" height="72"/>
	<rect x="616.001" y="144.002" fill="#E6E7E8" width="88" height="72"/>
	<rect x="704.001" y="504.002" fill="#E6E7E8" width="88" height="72"/>
	<rect x="704.001" y="360.002" fill="#E6E7E8" width="88" height="72"/>
	<rect x="704.001" y="216.002" fill="#E6E7E8" width="88" height="72"/>
	<rect x="704.001" y="72.002" fill="#E6E7E8" width="88" height="72"/>
	<rect x="0.001" y="432.002" fill="#F2F2F2" width="88" height="72"/>
	<rect x="0.001" y="288.002" fill="#F2F2F2" width="88" height="72"/>
	<rect x="0.001" y="144.002" fill="#F2F2F2" width="88" height="72"/>
	<rect x="0.001" y="0.002" fill="#F2F2F2" width="88" height="72"/>
	<rect x="88.001" y="504.002" fill="#F2F2F2" width="88" height="72"/>
	<rect x="88.001" y="360.002" fill="#F2F2F2" width="88" height="72"/>
	<rect x="88.001" y="216.002" fill="#F2F2F2" width="88" height="72"/>
	<rect x="88.001" y="72.002" fill="#F2F2F2" width="88" height="72"/>
	<rect x="176.001" y="432.002" fill="#F2F2F2" width="88" height="72"/>
	<rect x="176.001" y="288.002" fill="#F2F2F2" width="88" height="72"/>
	<rect x="176.001" y="144.002" fill="#F2F2F2" width="88" height="72"/>
	<rect x="176.001" y="0.002" fill="#F2F2F2" width="88" height="72"/>
	<rect x="264.001" y="504.002" fill="#F2F2F2" width="88" height="72"/>
	<rect x="264.001" y="360.002" fill="#F2F2F2" width="88" height="72"/>
	<rect x="264.001" y="216.002" fill="#F2F2F2" width="88" height="72"/>
	<rect x="264.001" y="72.002" fill="#F2F2F2" width="88" height="72"/>
	<rect x="352.001" y="432.002" fill="#F2F2F2" width="88" height="72"/>
	<rect x="352.001" y="288.002" fill="#F2F2F2" width="88" height="72"/>
	<rect x="352.001" y="144.002" fill="#F2F2F2" width="88" height="72"/>
	<rect x="352.001" y="0.002" fill="#F2F2F2" width="88" height="72"/>
	<rect x="440.001" y="504.002" fill="#F2F2F2" width="88" height="72"/>
	<rect x="440.001" y="360.002" fill="#F2F2F2" width="88" height="72"/>
	<rect x="440.001" y="216.002" fill="#F2F2F2" width="88" height="72"/>
	<rect x="440.001" y="72.002" fill="#F2F2F2" width="88" height="72"/>
	<rect x="528.001" y="432.002" fill="#F2F2F2" width="88" height="72"/>
	<rect x="528.001" y="288.002" fill="#F2F2F2" width="88" height="72"/>
	<rect x="528.001" y="144.002" fill="#F2F2F2" width="88" height="72"/>
	<rect x="528.001" y="0.002" fill="#F2F2F2" width="88" height="72"/>
	<rect x="616.001" y="504.002" fill="#F2F2F2" width="88" height="72"/>
	<rect x="616.001" y="360.002" fill="#F2F2F2" width="88" height="72"/>
	<rect x="616.001" y="216.002" fill="#F2F2F2" width="88" height="72"/>
	<rect x="616.001" y="72.002" fill="#F2F2F2" width="88" height="72"/>
	<rect x="704.001" y="432.002" fill="#F2F2F2" width="88" height="72"/>
	<rect x="704.001" y="288.002" fill="#F2F2F2" width="88" height="72"/>
	<rect x="704.001" y="144.002" fill="#F2F2F2" width="88" height="72"/>
	<rect x="704.001" y="0.002" fill="#F2F2F2" width="88" height="72"/>
</g>
<g id="fret_x5F_bg">
	<g>
		<rect x="72.001" y="102.002" fill="#FFFFFF" width="649" height="372"/>
	</g>
</g>
<g id="frets">
	<g>
		<rect x="84.001" y="108.002" fill="#C7C8CA" width="8" height="360"/>
	</g>
	<g>
		<rect x="172.001" y="108.002" fill="#C7C8CA" width="8" height="360"/>
	</g>
	<g>
		<rect x="260.001" y="108.002" fill="#C7C8CA" width="8" height="360"/>
	</g>
	<g>
		<rect x="348.001" y="108.002" fill="#C7C8CA" width="8" height="360"/>
	</g>
	<g>
		<rect x="436.001" y="108.002" fill="#C7C8CA" width="8" height="360"/>
	</g>
	<g>
		<rect x="524.001" y="108.002" fill="#C7C8CA" width="8" height="360"/>
	</g>
	<g>
		<rect x="612.001" y="108.002" fill="#C7C8CA" width="8" height="360"/>
	</g>
	<g>
		<rect x="700.001" y="108.002" fill="#C7C8CA" width="8" height="360"/>
	</g>
</g>
<g id="strings">
	<g>
		<rect x="72.001" y="462.002" width="648" height="12"/>
	</g>
	<g>
		<rect x="72.001" y="390.002" width="648" height="12"/>
	</g>
	<g>
		<rect x="72.001" y="318.002" width="648" height="12"/>
	</g>
	<g>
		<rect x="72.001" y="246.002" width="648" height="12"/>
	</g>
	<g>
		<rect x="72.001" y="174.002" width="648" height="12"/>
	</g>
	<g>
		<rect x="72.001" y="102.002" width="648" height="12"/>
	</g>
</g>
<g id="dots">
	<circle fill="#27AAE1" cx="132.001" cy="468.002" r="32"/>
	<circle fill="#27AAE1" cx="132.001" cy="396.002" r="32"/>
	<circle fill="#27AAE1" cx="132.001" cy="324.002" r="32"/>
	<circle fill="#27AAE1" cx="132.001" cy="252.002" r="32"/>
	<circle fill="#27AAE1" cx="132.001" cy="180.002" r="32"/>
	<circle fill="#27AAE1" cx="132.001" cy="108.002" r="32"/>
	<circle fill="#27AAE1" cx="220.001" cy="468.002" r="32"/>
	<circle fill="#27AAE1" cx="220.001" cy="396.002" r="32"/>
	<circle fill="#27AAE1" cx="220.001" cy="324.002" r="32"/>
	<circle fill="#27AAE1" cx="220.001" cy="252.002" r="32"/>
	<circle fill="#27AAE1" cx="220.001" cy="180.002" r="32"/>
	<circle fill="#27AAE1" cx="220.001" cy="108.002" r="32"/>
	<circle fill="#27AAE1" cx="308.001" cy="468.002" r="32"/>
	<circle fill="#27AAE1" cx="308.001" cy="396.002" r="32"/>
	<circle fill="#27AAE1" cx="308.001" cy="324.002" r="32"/>
	<circle fill="#27AAE1" cx="308.001" cy="252.002" r="32"/>
	<circle fill="#27AAE1" cx="308.001" cy="180.002" r="32"/>
	<circle fill="#27AAE1" cx="308.001" cy="108.002" r="32"/>
	<circle fill="#27AAE1" cx="396.001" cy="468.002" r="32"/>
	<circle fill="#27AAE1" cx="396.001" cy="396.002" r="32"/>
	<circle fill="#27AAE1" cx="396.001" cy="324.002" r="32"/>
	<circle fill="#27AAE1" cx="396.001" cy="252.002" r="32"/>
	<circle fill="#27AAE1" cx="396.001" cy="180.002" r="32"/>
	<circle fill="#27AAE1" cx="396.001" cy="108.002" r="32"/>
	<circle fill="#27AAE1" cx="484.001" cy="468.002" r="32"/>
	<circle fill="#27AAE1" cx="484.001" cy="396.002" r="32"/>
	<circle fill="#27AAE1" cx="484.001" cy="324.002" r="32"/>
	<circle fill="#27AAE1" cx="484.001" cy="252.002" r="32"/>
	<circle fill="#27AAE1" cx="484.001" cy="180.002" r="32"/>
	<circle fill="#27AAE1" cx="484.001" cy="108.002" r="32"/>
	<circle fill="#27AAE1" cx="572.001" cy="468.002" r="32"/>
	<circle fill="#27AAE1" cx="572.001" cy="396.002" r="32"/>
	<circle fill="#27AAE1" cx="572.001" cy="324.002" r="32"/>
	<circle fill="#27AAE1" cx="572.001" cy="252.002" r="32"/>
	<circle fill="#27AAE1" cx="572.001" cy="180.002" r="32"/>
	<circle fill="#27AAE1" cx="572.001" cy="108.002" r="32"/>
	<circle fill="#27AAE1" cx="660.001" cy="468.002" r="32"/>
	<circle fill="#27AAE1" cx="660.001" cy="396.002" r="32"/>
	<circle fill="#27AAE1" cx="660.001" cy="324.002" r="32"/>
	<circle fill="#27AAE1" cx="660.001" cy="252.002" r="32"/>
	<circle fill="#27AAE1" cx="660.001" cy="180.002" r="32"/>
	<circle fill="#27AAE1" cx="660.001" cy="108.002" r="32"/>
</g>
<g id="nut">
	<rect x="72.001" y="106.002" width="20" height="368"/>
</g>
<g id="old_too_small" display="none">
</g>
<g id="old_with_strokes" display="none">
</g>
<g id="old_22x30" display="none">
</g>
<g id="artboards" display="none">
</g>
<g id="Dot" display="none">
</g>
</svg>
