<?xml version="1.0" encoding="utf-8"?>
<!-- Generator: Adobe Illustrator 17.1.0, SVG Export Plug-In . SVG Version: 6.00 Build 0)  -->
<!DOCTYPE svg PUBLIC "-//W3C//DTD SVG 1.1//EN" "http://www.w3.org/Graphics/SVG/1.1/DTD/svg11.dtd">
<svg version="1.1" xmlns="http://www.w3.org/2000/svg" xmlns:xlink="http://www.w3.org/1999/xlink" x="0px" y="0px"
	 viewBox="0 0 576 1232" enable-background="new 0 0 576 1232" xml:space="preserve">
<g id="Layer_1" display="none">
</g>
<g id="checkers">
	<rect fill="#E6E7E8" width="72" height="88"/>
	<rect x="144" fill="#E6E7E8" width="72" height="88"/>
	<rect x="288" fill="#E6E7E8" width="72" height="88"/>
	<rect x="432" fill="#E6E7E8" width="72" height="88"/>
	<rect x="504" y="88" fill="#E6E7E8" width="72" height="88"/>
	<rect x="72" y="88" fill="#E6E7E8" width="72" height="88"/>
	<rect x="216" y="88" fill="#E6E7E8" width="72" height="88"/>
	<rect x="360" y="88" fill="#E6E7E8" width="72" height="88"/>
	<rect y="176" fill="#E6E7E8" width="72" height="88"/>
	<rect x="144" y="176" fill="#E6E7E8" width="72" height="88"/>
	<rect x="288" y="176" fill="#E6E7E8" width="72" height="88"/>
	<rect x="432" y="176" fill="#E6E7E8" width="72" height="88"/>
	<rect x="504" y="264" fill="#E6E7E8" width="72" height="88"/>
	<rect x="72" y="264" fill="#E6E7E8" width="72" height="88"/>
	<rect x="216" y="264" fill="#E6E7E8" width="72" height="88"/>
	<rect x="360" y="264" fill="#E6E7E8" width="72" height="88"/>
	<rect y="352" fill="#E6E7E8" width="72" height="88"/>
	<rect x="144" y="352" fill="#E6E7E8" width="72" height="88"/>
	<rect x="288" y="352" fill="#E6E7E8" width="72" height="88"/>
	<rect x="432" y="352" fill="#E6E7E8" width="72" height="88"/>
	<rect x="504" y="440" fill="#E6E7E8" width="72" height="88"/>
	<rect x="72" y="440" fill="#E6E7E8" width="72" height="88"/>
	<rect x="216" y="440" fill="#E6E7E8" width="72" height="88"/>
	<rect x="360" y="440" fill="#E6E7E8" width="72" height="88"/>
	<rect y="528" fill="#E6E7E8" width="72" height="88"/>
	<rect x="144" y="528" fill="#E6E7E8" width="72" height="88"/>
	<rect x="288" y="528" fill="#E6E7E8" width="72" height="88"/>
	<rect x="432" y="528" fill="#E6E7E8" width="72" height="88"/>
	<rect x="504" y="616" fill="#E6E7E8" width="72" height="88"/>
	<rect x="72" y="616" fill="#E6E7E8" width="72" height="88"/>
	<rect x="216" y="616" fill="#E6E7E8" width="72" height="88"/>
	<rect x="360" y="616" fill="#E6E7E8" width="72" height="88"/>
	<rect y="704" fill="#E6E7E8" width="72" height="88"/>
	<rect x="144" y="704" fill="#E6E7E8" width="72" height="88"/>
	<rect x="288" y="704" fill="#E6E7E8" width="72" height="88"/>
	<rect x="432" y="704" fill="#E6E7E8" width="72" height="88"/>
	<rect x="504" y="792" fill="#E6E7E8" width="72" height="88"/>
	<rect x="72" y="792" fill="#E6E7E8" width="72" height="88"/>
	<rect x="216" y="792" fill="#E6E7E8" width="72" height="88"/>
	<rect x="360" y="792" fill="#E6E7E8" width="72" height="88"/>
	<rect y="880" fill="#E6E7E8" width="72" height="88"/>
	<rect x="144" y="880" fill="#E6E7E8" width="72" height="88"/>
	<rect x="288" y="880" fill="#E6E7E8" width="72" height="88"/>
	<rect x="432" y="880" fill="#E6E7E8" width="72" height="88"/>
	<rect x="504" y="968" fill="#E6E7E8" width="72" height="88"/>
	<rect x="72" y="968" fill="#E6E7E8" width="72" height="88"/>
	<rect x="216" y="968" fill="#E6E7E8" width="72" height="88"/>
	<rect x="360" y="968" fill="#E6E7E8" width="72" height="88"/>
	<rect y="1056" fill="#E6E7E8" width="72" height="88"/>
	<rect x="144" y="1056" fill="#E6E7E8" width="72" height="88"/>
	<rect x="288" y="1056" fill="#E6E7E8" width="72" height="88"/>
	<rect x="432" y="1056" fill="#E6E7E8" width="72" height="88"/>
	<rect x="504" y="1144" fill="#E6E7E8" width="72" height="88"/>
	<rect x="72" y="1144" fill="#E6E7E8" width="72" height="88"/>
	<rect x="216" y="1144" fill="#E6E7E8" width="72" height="88"/>
	<rect x="360" y="1144" fill="#E6E7E8" width="72" height="88"/>
	<rect x="72" fill="#F2F2F2" width="72" height="88"/>
	<rect x="216" fill="#F2F2F2" width="72" height="88"/>
	<rect x="360" fill="#F2F2F2" width="72" height="88"/>
	<rect x="504" fill="#F2F2F2" width="72" height="88"/>
	<rect y="88" fill="#F2F2F2" width="72" height="88"/>
	<rect x="144" y="88" fill="#F2F2F2" width="72" height="88"/>
	<rect x="288" y="88" fill="#F2F2F2" width="72" height="88"/>
	<rect x="432" y="88" fill="#F2F2F2" width="72" height="88"/>
	<rect x="72" y="176" fill="#F2F2F2" width="72" height="88"/>
	<rect x="216" y="176" fill="#F2F2F2" width="72" height="88"/>
	<rect x="360" y="176" fill="#F2F2F2" width="72" height="88"/>
	<rect x="504" y="176" fill="#F2F2F2" width="72" height="88"/>
	<rect y="264" fill="#F2F2F2" width="72" height="88"/>
	<rect x="144" y="264" fill="#F2F2F2" width="72" height="88"/>
	<rect x="288" y="264" fill="#F2F2F2" width="72" height="88"/>
	<rect x="432" y="264" fill="#F2F2F2" width="72" height="88"/>
	<rect x="72" y="352" fill="#F2F2F2" width="72" height="88"/>
	<rect x="216" y="352" fill="#F2F2F2" width="72" height="88"/>
	<rect x="360" y="352" fill="#F2F2F2" width="72" height="88"/>
	<rect x="504" y="352" fill="#F2F2F2" width="72" height="88"/>
	<rect y="440" fill="#F2F2F2" width="72" height="88"/>
	<rect x="144" y="440" fill="#F2F2F2" width="72" height="88"/>
	<rect x="288" y="440" fill="#F2F2F2" width="72" height="88"/>
	<rect x="432" y="440" fill="#F2F2F2" width="72" height="88"/>
	<rect x="72" y="528" fill="#F2F2F2" width="72" height="88"/>
	<rect x="216" y="528" fill="#F2F2F2" width="72" height="88"/>
	<rect x="360" y="528" fill="#F2F2F2" width="72" height="88"/>
	<rect x="504" y="528" fill="#F2F2F2" width="72" height="88"/>
	<rect y="616" fill="#F2F2F2" width="72" height="88"/>
	<rect x="144" y="616" fill="#F2F2F2" width="72" height="88"/>
	<rect x="288" y="616" fill="#F2F2F2" width="72" height="88"/>
	<rect x="432" y="616" fill="#F2F2F2" width="72" height="88"/>
	<rect x="72" y="704" fill="#F2F2F2" width="72" height="88"/>
	<rect x="216" y="704" fill="#F2F2F2" width="72" height="88"/>
	<rect x="360" y="704" fill="#F2F2F2" width="72" height="88"/>
	<rect x="504" y="704" fill="#F2F2F2" width="72" height="88"/>
	<rect y="792" fill="#F2F2F2" width="72" height="88"/>
	<rect x="144" y="792" fill="#F2F2F2" width="72" height="88"/>
	<rect x="288" y="792" fill="#F2F2F2" width="72" height="88"/>
	<rect x="432" y="792" fill="#F2F2F2" width="72" height="88"/>
	<rect x="72" y="880" fill="#F2F2F2" width="72" height="88"/>
	<rect x="216" y="880" fill="#F2F2F2" width="72" height="88"/>
	<rect x="360" y="880" fill="#F2F2F2" width="72" height="88"/>
	<rect x="504" y="880" fill="#F2F2F2" width="72" height="88"/>
	<rect y="968" fill="#F2F2F2" width="72" height="88"/>
	<rect x="144" y="968" fill="#F2F2F2" width="72" height="88"/>
	<rect x="288" y="968" fill="#F2F2F2" width="72" height="88"/>
	<rect x="432" y="968" fill="#F2F2F2" width="72" height="88"/>
	<rect x="72" y="1056" fill="#F2F2F2" width="72" height="88"/>
	<rect x="216" y="1056" fill="#F2F2F2" width="72" height="88"/>
	<rect x="360" y="1056" fill="#F2F2F2" width="72" height="88"/>
	<rect x="504" y="1056" fill="#F2F2F2" width="72" height="88"/>
	<rect y="1144" fill="#F2F2F2" width="72" height="88"/>
	<rect x="144" y="1144" fill="#F2F2F2" width="72" height="88"/>
	<rect x="288" y="1144" fill="#F2F2F2" width="72" height="88"/>
	<rect x="432" y="1144" fill="#F2F2F2" width="72" height="88"/>
</g>
<g id="fret_x5F_bg">
	<g>
		<rect x="102" y="72" fill="#FFFFFF" width="372" height="1088"/>
	</g>
</g>
<g id="frets">
	<g>
		<rect x="108" y="84" fill="#C7C8CA" width="360" height="8"/>
	</g>
	<g>
		<rect x="108" y="172" fill="#C7C8CA" width="360" height="8"/>
	</g>
	<g>
		<rect x="108" y="260" fill="#C7C8CA" width="360" height="8"/>
	</g>
	<g>
		<rect x="108" y="348" fill="#C7C8CA" width="360" height="8"/>
	</g>
	<g>
		<rect x="108" y="436" fill="#C7C8CA" width="360" height="8"/>
	</g>
	<g>
		<rect x="108" y="524" fill="#C7C8CA" width="360" height="8"/>
	</g>
	<g>
		<rect x="108" y="612" fill="#C7C8CA" width="360" height="8"/>
	</g>
	<g>
		<rect x="108" y="700" fill="#C7C8CA" width="360" height="8"/>
	</g>
	<g>
		<rect x="108" y="788" fill="#C7C8CA" width="360" height="8"/>
	</g>
	<g>
		<rect x="108" y="876" fill="#C7C8CA" width="360" height="8"/>
	</g>
	<g>
		<rect x="108" y="964" fill="#C7C8CA" width="360" height="8"/>
	</g>
	<g>
		<rect x="108" y="1052" fill="#C7C8CA" width="360" height="8"/>
	</g>
	<g>
		<rect x="108" y="1140" fill="#C7C8CA" width="360" height="8"/>
	</g>
</g>
<g id="strings">
	<g>
		<rect x="102" y="72" width="12" height="1088"/>
	</g>
	<g>
		<rect x="174" y="72" width="12" height="1088"/>
	</g>
	<g>
		<rect x="246" y="72" width="12" height="1088"/>
	</g>
	<g>
		<rect x="318" y="72" width="12" height="1088"/>
	</g>
	<g>
		<rect x="390" y="72" width="12" height="1088"/>
	</g>
	<g>
		<rect x="462" y="72" width="12" height="1088"/>
	</g>
</g>
<g id="dots">
	<circle fill="#27AAE1" cx="108" cy="132" r="32"/>
	<circle fill="#27AAE1" cx="180" cy="132" r="32"/>
	<circle fill="#27AAE1" cx="252" cy="132" r="32"/>
	<circle fill="#27AAE1" cx="324" cy="132" r="32"/>
	<circle fill="#27AAE1" cx="396" cy="132" r="32"/>
	<circle fill="#27AAE1" cx="468" cy="132" r="32"/>
	<circle fill="#27AAE1" cx="108" cy="220" r="32"/>
	<circle fill="#27AAE1" cx="180" cy="220" r="32"/>
	<circle fill="#27AAE1" cx="252" cy="220" r="32"/>
	<circle fill="#27AAE1" cx="324" cy="220" r="32"/>
	<circle fill="#27AAE1" cx="396" cy="220" r="32"/>
	<circle fill="#27AAE1" cx="468" cy="220" r="32"/>
	<circle fill="#27AAE1" cx="108" cy="308" r="32"/>
	<circle fill="#27AAE1" cx="180" cy="308" r="32"/>
	<circle fill="#27AAE1" cx="252" cy="308" r="32"/>
	<circle fill="#27AAE1" cx="324" cy="308" r="32"/>
	<circle fill="#27AAE1" cx="396" cy="308" r="32"/>
	<circle fill="#27AAE1" cx="468" cy="308" r="32"/>
	<circle fill="#27AAE1" cx="108" cy="396" r="32"/>
	<circle fill="#27AAE1" cx="180" cy="396" r="32"/>
	<circle fill="#27AAE1" cx="252" cy="396" r="32"/>
	<circle fill="#27AAE1" cx="324" cy="396" r="32"/>
	<circle fill="#27AAE1" cx="396" cy="396" r="32"/>
	<circle fill="#27AAE1" cx="468" cy="396" r="32"/>
	<circle fill="#27AAE1" cx="108" cy="484" r="32"/>
	<circle fill="#27AAE1" cx="180" cy="484" r="32"/>
	<circle fill="#27AAE1" cx="252" cy="484" r="32"/>
	<circle fill="#27AAE1" cx="324" cy="484" r="32"/>
	<circle fill="#27AAE1" cx="396" cy="484" r="32"/>
	<circle fill="#27AAE1" cx="468" cy="484" r="32"/>
	<circle fill="#27AAE1" cx="108" cy="572" r="32"/>
	<circle fill="#27AAE1" cx="180" cy="572" r="32"/>
	<circle fill="#27AAE1" cx="252" cy="572" r="32"/>
	<circle fill="#27AAE1" cx="324" cy="572" r="32"/>
	<circle fill="#27AAE1" cx="396" cy="572" r="32"/>
	<circle fill="#27AAE1" cx="468" cy="572" r="32"/>
	<circle fill="#27AAE1" cx="108" cy="660" r="32"/>
	<circle fill="#27AAE1" cx="180" cy="660" r="32"/>
	<circle fill="#27AAE1" cx="252" cy="660" r="32"/>
	<circle fill="#27AAE1" cx="324" cy="660" r="32"/>
	<circle fill="#27AAE1" cx="396" cy="660" r="32"/>
	<circle fill="#27AAE1" cx="468" cy="660" r="32"/>
	<circle fill="#27AAE1" cx="108" cy="748" r="32"/>
	<circle fill="#27AAE1" cx="180" cy="748" r="32"/>
	<circle fill="#27AAE1" cx="252" cy="748" r="32"/>
	<circle fill="#27AAE1" cx="324" cy="748" r="32"/>
	<circle fill="#27AAE1" cx="396" cy="748" r="32"/>
	<circle fill="#27AAE1" cx="468" cy="748" r="32"/>
	<circle fill="#27AAE1" cx="108" cy="836" r="32"/>
	<circle fill="#27AAE1" cx="180" cy="836" r="32"/>
	<circle fill="#27AAE1" cx="252" cy="836" r="32"/>
	<circle fill="#27AAE1" cx="324" cy="836" r="32"/>
	<circle fill="#27AAE1" cx="396" cy="836" r="32"/>
	<circle fill="#27AAE1" cx="468" cy="836" r="32"/>
	<circle fill="#27AAE1" cx="108" cy="924" r="32"/>
	<circle fill="#27AAE1" cx="180" cy="924" r="32"/>
	<circle fill="#27AAE1" cx="252" cy="924" r="32"/>
	<circle fill="#27AAE1" cx="324" cy="924" r="32"/>
	<circle fill="#27AAE1" cx="396" cy="924" r="32"/>
	<circle fill="#27AAE1" cx="468" cy="924" r="32"/>
	<circle fill="#27AAE1" cx="108" cy="1012" r="32"/>
	<circle fill="#27AAE1" cx="180" cy="1012" r="32"/>
	<circle fill="#27AAE1" cx="252" cy="1012" r="32"/>
	<circle fill="#27AAE1" cx="324" cy="1012" r="32"/>
	<circle fill="#27AAE1" cx="396" cy="1012" r="32"/>
	<circle fill="#27AAE1" cx="468" cy="1012" r="32"/>
	<circle fill="#27AAE1" cx="108" cy="1100" r="32"/>
	<circle fill="#27AAE1" cx="180" cy="1100" r="32"/>
	<circle fill="#27AAE1" cx="252" cy="1100" r="32"/>
	<circle fill="#27AAE1" cx="324" cy="1100" r="32"/>
	<circle fill="#27AAE1" cx="396" cy="1100" r="32"/>
	<circle fill="#27AAE1" cx="468" cy="1100" r="32"/>
</g>
<g id="nut">
	<rect x="104" y="72" width="368" height="20"/>
</g>
<g id="old_too_small" display="none">
	<rect x="59" y="88" display="inline" fill="#E6E7E8" width="36" height="44"/>
	<rect x="131" y="88" display="inline" fill="#E6E7E8" width="36" height="44"/>
	<rect x="95" y="132" display="inline" fill="#E6E7E8" width="36" height="44"/>
	<rect x="167" y="132" display="inline" fill="#E6E7E8" width="36" height="44"/>
	<rect x="59" y="176" display="inline" fill="#E6E7E8" width="36" height="44"/>
	<rect x="131" y="176" display="inline" fill="#E6E7E8" width="36" height="44"/>
	<rect x="95" y="88" display="inline" fill="#F2F2F2" width="36" height="44"/>
	<rect x="167" y="88" display="inline" fill="#F2F2F2" width="36" height="44"/>
	<rect x="59" y="132" display="inline" fill="#F2F2F2" width="36" height="44"/>
	<rect x="131" y="132" display="inline" fill="#F2F2F2" width="36" height="44"/>
	<rect x="95" y="176" display="inline" fill="#F2F2F2" width="36" height="44"/>
	<rect x="167" y="176" display="inline" fill="#F2F2F2" width="36" height="44"/>
	<rect x="530" display="inline" fill="#E6E7E8" width="18" height="22"/>
	<rect x="566" display="inline" fill="#E6E7E8" width="18" height="22"/>
	<rect x="548" y="22" display="inline" fill="#E6E7E8" width="18" height="22"/>
	<rect x="530" y="44" display="inline" fill="#E6E7E8" width="18" height="22"/>
	<rect x="566" y="44" display="inline" fill="#E6E7E8" width="18" height="22"/>
	<rect x="548" y="66" display="inline" fill="#E6E7E8" width="18" height="22"/>
	<rect x="530" y="88" display="inline" fill="#E6E7E8" width="18" height="22"/>
	<rect x="566" y="88" display="inline" fill="#E6E7E8" width="18" height="22"/>
	<rect x="548" y="110" display="inline" fill="#E6E7E8" width="18" height="22"/>
	<rect x="530" y="132" display="inline" fill="#E6E7E8" width="18" height="22"/>
	<rect x="566" y="132" display="inline" fill="#E6E7E8" width="18" height="22"/>
	<rect x="548" y="154" display="inline" fill="#E6E7E8" width="18" height="22"/>
	<rect x="530" y="176" display="inline" fill="#E6E7E8" width="18" height="22"/>
	<rect x="566" y="176" display="inline" fill="#E6E7E8" width="18" height="22"/>
	<rect x="548" y="198" display="inline" fill="#E6E7E8" width="18" height="22"/>
	<rect x="530" y="220" display="inline" fill="#E6E7E8" width="18" height="22"/>
	<rect x="566" y="220" display="inline" fill="#E6E7E8" width="18" height="22"/>
	<rect x="548" y="242" display="inline" fill="#E6E7E8" width="18" height="22"/>
	<rect x="530" y="264" display="inline" fill="#E6E7E8" width="18" height="22"/>
	<rect x="566" y="264" display="inline" fill="#E6E7E8" width="18" height="22"/>
	<rect x="548" y="286" display="inline" fill="#E6E7E8" width="18" height="22"/>
	<rect x="530" y="308" display="inline" fill="#E6E7E8" width="18" height="22"/>
	<rect x="566" y="308" display="inline" fill="#E6E7E8" width="18" height="22"/>
	<rect x="548" y="330" display="inline" fill="#E6E7E8" width="18" height="22"/>
	<rect x="530" y="352" display="inline" fill="#E6E7E8" width="18" height="22"/>
	<rect x="566" y="352" display="inline" fill="#E6E7E8" width="18" height="22"/>
	<rect x="548" display="inline" fill="#F2F2F2" width="18" height="22"/>
	<rect x="530" y="22" display="inline" fill="#F2F2F2" width="18" height="22"/>
	<rect x="566" y="22" display="inline" fill="#F2F2F2" width="18" height="22"/>
	<rect x="548" y="44" display="inline" fill="#F2F2F2" width="18" height="22"/>
	<rect x="530" y="66" display="inline" fill="#F2F2F2" width="18" height="22"/>
	<rect x="566" y="66" display="inline" fill="#F2F2F2" width="18" height="22"/>
	<rect x="548" y="88" display="inline" fill="#F2F2F2" width="18" height="22"/>
	<rect x="530" y="110" display="inline" fill="#F2F2F2" width="18" height="22"/>
	<rect x="566" y="110" display="inline" fill="#F2F2F2" width="18" height="22"/>
	<rect x="548" y="132" display="inline" fill="#F2F2F2" width="18" height="22"/>
	<rect x="530" y="154" display="inline" fill="#F2F2F2" width="18" height="22"/>
	<rect x="566" y="154" display="inline" fill="#F2F2F2" width="18" height="22"/>
	<rect x="548" y="176" display="inline" fill="#F2F2F2" width="18" height="22"/>
	<rect x="530" y="198" display="inline" fill="#F2F2F2" width="18" height="22"/>
	<rect x="566" y="198" display="inline" fill="#F2F2F2" width="18" height="22"/>
	<rect x="548" y="220" display="inline" fill="#F2F2F2" width="18" height="22"/>
	<rect x="530" y="242" display="inline" fill="#F2F2F2" width="18" height="22"/>
	<rect x="566" y="242" display="inline" fill="#F2F2F2" width="18" height="22"/>
	<rect x="548" y="264" display="inline" fill="#F2F2F2" width="18" height="22"/>
	<rect x="530" y="286" display="inline" fill="#F2F2F2" width="18" height="22"/>
	<rect x="566" y="286" display="inline" fill="#F2F2F2" width="18" height="22"/>
	<rect x="548" y="308" display="inline" fill="#F2F2F2" width="18" height="22"/>
	<rect x="530" y="330" display="inline" fill="#F2F2F2" width="18" height="22"/>
	<rect x="566" y="330" display="inline" fill="#F2F2F2" width="18" height="22"/>
	<rect x="548" y="352" display="inline" fill="#F2F2F2" width="18" height="22"/>
	<rect x="389" y="22" display="inline" fill="#E6E7E8" width="18" height="22"/>
	<rect x="425" y="22" display="inline" fill="#E6E7E8" width="18" height="22"/>
	<rect x="371" y="44" display="inline" fill="#E6E7E8" width="18" height="22"/>
	<rect x="407" y="44" display="inline" fill="#E6E7E8" width="18" height="22"/>
	<rect x="389" y="66" display="inline" fill="#E6E7E8" width="18" height="22"/>
	<rect x="425" y="66" display="inline" fill="#E6E7E8" width="18" height="22"/>
	<rect x="371" y="88" display="inline" fill="#E6E7E8" width="18" height="22"/>
	<rect x="407" y="88" display="inline" fill="#E6E7E8" width="18" height="22"/>
	<rect x="371" y="22" display="inline" fill="#F2F2F2" width="18" height="22"/>
	<rect x="407" y="22" display="inline" fill="#F2F2F2" width="18" height="22"/>
	<rect x="443" y="22" display="inline" fill="#F2F2F2" width="18" height="22"/>
	<rect x="389" y="44" display="inline" fill="#F2F2F2" width="18" height="22"/>
	<rect x="425" y="44" display="inline" fill="#F2F2F2" width="18" height="22"/>
	<rect x="371" y="66" display="inline" fill="#F2F2F2" width="18" height="22"/>
	<rect x="407" y="66" display="inline" fill="#F2F2F2" width="18" height="22"/>
	<rect x="389" y="88" display="inline" fill="#F2F2F2" width="18" height="22"/>
	<rect x="425" y="88" display="inline" fill="#F2F2F2" width="18" height="22"/>
	<g display="inline">
		<rect x="39" y="36" fill="#FFFFFF" width="184" height="194"/>
	</g>
	<g display="inline">
		<rect x="556" y="18" fill="#FFFFFF" width="92" height="338"/>
	</g>
	<g display="inline">
		<rect x="41" y="86" fill="#E6E6E6" width="180" height="4"/>
	</g>
	<g display="inline">
		<rect x="41" y="130" fill="#E6E6E6" width="180" height="4"/>
	</g>
	<g display="inline">
		<rect x="41" y="174" fill="#E6E6E6" width="180" height="4"/>
	</g>
	<g display="inline">
		<rect x="41" y="218" fill="#E6E6E6" width="180" height="4"/>
	</g>
	<g display="inline">
		<rect x="557" y="21" fill="#C7C8CA" width="90" height="2"/>
	</g>
	<g display="inline">
		<rect x="557" y="43" fill="#C7C8CA" width="90" height="2"/>
	</g>
	<g display="inline">
		<rect x="557" y="65" fill="#C7C8CA" width="90" height="2"/>
	</g>
	<g display="inline">
		<rect x="557" y="87" fill="#C7C8CA" width="90" height="2"/>
	</g>
	<g display="inline">
		<rect x="557" y="109" fill="#C7C8CA" width="90" height="2"/>
	</g>
	<g display="inline">
		<rect x="557" y="131" fill="#C7C8CA" width="90" height="2"/>
	</g>
	<g display="inline">
		<rect x="557" y="153" fill="#C7C8CA" width="90" height="2"/>
	</g>
	<g display="inline">
		<rect x="557" y="175" fill="#C7C8CA" width="90" height="2"/>
	</g>
	<g display="inline">
		<rect x="557" y="197" fill="#C7C8CA" width="90" height="2"/>
	</g>
	<g display="inline">
		<rect x="557" y="219" fill="#C7C8CA" width="90" height="2"/>
	</g>
	<g display="inline">
		<rect x="557" y="241" fill="#C7C8CA" width="90" height="2"/>
	</g>
	<g display="inline">
		<rect x="557" y="263" fill="#C7C8CA" width="90" height="2"/>
	</g>
	<g display="inline">
		<rect x="557" y="285" fill="#C7C8CA" width="90" height="2"/>
	</g>
	<g display="inline">
		<rect x="557" y="307" fill="#C7C8CA" width="90" height="2"/>
	</g>
	<g display="inline">
		<rect x="557" y="329" fill="#C7C8CA" width="90" height="2"/>
	</g>
	<g display="inline">
		<rect x="557" y="351" fill="#C7C8CA" width="90" height="2"/>
	</g>
	<g display="inline">
		<rect x="362" y="21" fill="#C7C8CA" width="90" height="2"/>
	</g>
	<g display="inline">
		<rect x="362" y="43" fill="#DEDDDD" width="90" height="2"/>
	</g>
	<g display="inline">
		<rect x="362" y="65" fill="#DEDDDD" width="90" height="2"/>
	</g>
	<g display="inline">
		<rect x="362" y="87" fill="#DEDDDD" width="90" height="2"/>
	</g>
	<g display="inline">
		<rect x="362" y="109" fill="#DEDDDD" width="90" height="2"/>
	</g>
	<g display="inline">
		<g>
			<rect x="38" y="36" fill="#787878" width="6" height="194"/>
		</g>
		<g>
			<rect x="74" y="36" fill="#787878" width="6" height="194"/>
		</g>
		<g>
			<rect x="110" y="36" fill="#787878" width="6" height="194"/>
		</g>
		<g>
			<rect x="146" y="36" fill="#787878" width="6" height="194"/>
		</g>
		<g>
			<rect x="182" y="36" fill="#787878" width="6" height="194"/>
		</g>
		<g>
			<rect x="218" y="36" fill="#787878" width="6" height="194"/>
		</g>
	</g>
	<g display="inline">
		<rect x="556" y="18" width="2" height="338"/>
	</g>
	<g display="inline">
		<rect x="574" y="18" width="2" height="338"/>
	</g>
	<g display="inline">
		<path fill="#787878" d="M362.01,115h-0.02c-0.547,0-0.99-0.443-0.99-0.99V18h2v96.01C363,114.557,362.557,115,362.01,115z"/>
	</g>
	<g display="inline">
		<path fill="#787878" d="M380.01,115h-0.02c-0.547,0-0.99-0.443-0.99-0.99V18h2v96.01C381,114.557,380.557,115,380.01,115z"/>
	</g>
	<g display="inline">
		<path fill="#787878" d="M398.01,115h-0.02c-0.547,0-0.99-0.443-0.99-0.99V18h2v96.01C399,114.557,398.557,115,398.01,115z"/>
	</g>
	<g display="inline">
		<path fill="#787878" d="M416.01,115h-0.02c-0.547,0-0.99-0.443-0.99-0.99V18h2v96.01C417,114.557,416.557,115,416.01,115z"/>
	</g>
	<g display="inline">
		<path fill="#787878" d="M434.01,115h-0.02c-0.547,0-0.99-0.443-0.99-0.99V18h2v96.01C435,114.557,434.557,115,434.01,115z"/>
	</g>
	<g display="inline">
		<path fill="#787878" d="M452.01,115h-0.02c-0.547,0-0.99-0.443-0.99-0.99V18h2v96.01C453,114.557,452.557,115,452.01,115z"/>
	</g>
	<circle display="inline" fill="#27AAE1" cx="77" cy="110" r="16"/>
	<circle display="inline" fill="#27AAE1" cx="41" cy="154" r="16"/>
	<circle display="inline" fill="#27AAE1" cx="185" cy="154" r="16"/>
	<circle display="inline" fill="#27AAE1" cx="221" cy="154" r="16"/>
	<circle display="inline" fill="#27AAE1" cx="557" cy="33" r="8"/>
	<circle display="inline" fill="#27AAE1" cx="575" cy="33" r="8"/>
	<circle display="inline" fill="#27AAE1" cx="557" cy="55" r="8"/>
	<circle display="inline" fill="#27AAE1" cx="575" cy="55" r="8"/>
	<circle display="inline" fill="#27AAE1" cx="557" cy="77" r="8"/>
	<circle display="inline" fill="#27AAE1" cx="575" cy="77" r="8"/>
	<circle display="inline" fill="#27AAE1" cx="557" cy="99" r="8"/>
	<circle display="inline" fill="#27AAE1" cx="575" cy="99" r="8"/>
	<circle display="inline" fill="#27AAE1" cx="557" cy="121" r="8"/>
	<circle display="inline" fill="#27AAE1" cx="575" cy="121" r="8"/>
	<circle display="inline" fill="#27AAE1" cx="557" cy="143" r="8"/>
	<circle display="inline" fill="#27AAE1" cx="575" cy="143" r="8"/>
	<circle display="inline" fill="#27AAE1" cx="557" cy="165" r="8"/>
	<circle display="inline" fill="#27AAE1" cx="575" cy="165" r="8"/>
	<circle display="inline" fill="#27AAE1" cx="557" cy="187" r="8"/>
	<circle display="inline" fill="#27AAE1" cx="575" cy="187" r="8"/>
	<circle display="inline" fill="#27AAE1" cx="557" cy="209" r="8"/>
	<circle display="inline" fill="#27AAE1" cx="575" cy="209" r="8"/>
	<circle display="inline" fill="#27AAE1" cx="557" cy="231" r="8"/>
	<circle display="inline" fill="#27AAE1" cx="575" cy="231" r="8"/>
	<circle display="inline" fill="#27AAE1" cx="557" cy="253" r="8"/>
	<circle display="inline" fill="#27AAE1" cx="575" cy="253" r="8"/>
	<circle display="inline" fill="#27AAE1" cx="557" cy="275" r="8"/>
	<circle display="inline" fill="#27AAE1" cx="575" cy="275" r="8"/>
	<circle display="inline" fill="#27AAE1" cx="557" cy="297" r="8"/>
	<circle display="inline" fill="#27AAE1" cx="575" cy="297" r="8"/>
	<circle display="inline" fill="#27AAE1" cx="557" cy="319" r="8"/>
	<circle display="inline" fill="#27AAE1" cx="575" cy="319" r="8"/>
	<circle display="inline" fill="#27AAE1" cx="557" cy="341" r="8"/>
	<circle display="inline" fill="#27AAE1" cx="575" cy="341" r="8"/>
	<circle display="inline" fill="#27AAE1" cx="380" cy="55" r="8"/>
	<circle display="inline" fill="#27AAE1" cx="362" cy="77" r="8"/>
	<circle display="inline" fill="#27AAE1" cx="434" cy="77" r="8"/>
	<circle display="inline" fill="#27AAE1" cx="452" cy="77" r="8"/>
	<rect x="39" y="36" display="inline" fill="#787878" width="184" height="10"/>
	<rect x="556" y="18" display="inline" width="92" height="5"/>
	<rect x="361" y="18" display="inline" fill="#787878" width="92" height="5"/>
</g>
<g id="old_with_strokes" display="none">
</g>
<g id="old_22x30" display="none">
</g>
<g id="artboards" display="none">
	<rect display="inline" fill="#FFF200" width="576" height="1232"/>
</g>
<g id="Dot">
</g>
</svg>
