<?xml version="1.0" encoding="utf-8"?>
<!-- Generator: Adobe Illustrator 17.1.0, SVG Export Plug-In . SVG Version: 6.00 Build 0)  -->
<!DOCTYPE svg PUBLIC "-//W3C//DTD SVG 1.1//EN" "http://www.w3.org/Graphics/SVG/1.1/DTD/svg11.dtd">
<svg version="1.1" xmlns="http://www.w3.org/2000/svg" xmlns:xlink="http://www.w3.org/1999/xlink" x="0px" y="0px"
	 viewBox="0 0 704 576" enable-background="new 0 0 704 576" xml:space="preserve">
<g id="Layer_1" display="none">
</g>
<g id="checkers">
	<rect x="0" y="504" fill="#E6E7E8" width="88" height="72"/>
	<rect x="0" y="360" fill="#E6E7E8" width="88" height="72"/>
	<rect x="0" y="216" fill="#E6E7E8" width="88" height="72"/>
	<rect x="0" y="72" fill="#E6E7E8" width="88" height="72"/>
	<rect x="88" y="0" fill="#E6E7E8" width="88" height="72"/>
	<rect x="88" y="432" fill="#E6E7E8" width="88" height="72"/>
	<rect x="88" y="288" fill="#E6E7E8" width="88" height="72"/>
	<rect x="88" y="144" fill="#E6E7E8" width="88" height="72"/>
	<rect x="176" y="504" fill="#E6E7E8" width="88" height="72"/>
	<rect x="176" y="360" fill="#E6E7E8" width="88" height="72"/>
	<rect x="176" y="216" fill="#E6E7E8" width="88" height="72"/>
	<rect x="176" y="72" fill="#E6E7E8" width="88" height="72"/>
	<rect x="264" y="0" fill="#E6E7E8" width="88" height="72"/>
	<rect x="264" y="432" fill="#E6E7E8" width="88" height="72"/>
	<rect x="264" y="288" fill="#E6E7E8" width="88" height="72"/>
	<rect x="264" y="144" fill="#E6E7E8" width="88" height="72"/>
	<rect x="352" y="504" fill="#E6E7E8" width="88" height="72"/>
	<rect x="352" y="360" fill="#E6E7E8" width="88" height="72"/>
	<rect x="352" y="216" fill="#E6E7E8" width="88" height="72"/>
	<rect x="352" y="72" fill="#E6E7E8" width="88" height="72"/>
	<rect x="440" y="0" fill="#E6E7E8" width="88" height="72"/>
	<rect x="440" y="432" fill="#E6E7E8" width="88" height="72"/>
	<rect x="440" y="288" fill="#E6E7E8" width="88" height="72"/>
	<rect x="440" y="144" fill="#E6E7E8" width="88" height="72"/>
	<rect x="528" y="504" fill="#E6E7E8" width="88" height="72"/>
	<rect x="528" y="360" fill="#E6E7E8" width="88" height="72"/>
	<rect x="528" y="216" fill="#E6E7E8" width="88" height="72"/>
	<rect x="528" y="72" fill="#E6E7E8" width="88" height="72"/>
	<rect x="616" y="0" fill="#E6E7E8" width="88" height="72"/>
	<rect x="616" y="432" fill="#E6E7E8" width="88" height="72"/>
	<rect x="616" y="288" fill="#E6E7E8" width="88" height="72"/>
	<rect x="616" y="144" fill="#E6E7E8" width="88" height="72"/>
	<rect x="0" y="432" fill="#F2F2F2" width="88" height="72"/>
	<rect x="0" y="288" fill="#F2F2F2" width="88" height="72"/>
	<rect x="0" y="144" fill="#F2F2F2" width="88" height="72"/>
	<rect x="0" y="0" fill="#F2F2F2" width="88" height="72"/>
	<rect x="88" y="504" fill="#F2F2F2" width="88" height="72"/>
	<rect x="88" y="360" fill="#F2F2F2" width="88" height="72"/>
	<rect x="88" y="216" fill="#F2F2F2" width="88" height="72"/>
	<rect x="88" y="72" fill="#F2F2F2" width="88" height="72"/>
	<rect x="176" y="432" fill="#F2F2F2" width="88" height="72"/>
	<rect x="176" y="288" fill="#F2F2F2" width="88" height="72"/>
	<rect x="176" y="144" fill="#F2F2F2" width="88" height="72"/>
	<rect x="176" y="0" fill="#F2F2F2" width="88" height="72"/>
	<rect x="264" y="504" fill="#F2F2F2" width="88" height="72"/>
	<rect x="264" y="360" fill="#F2F2F2" width="88" height="72"/>
	<rect x="264" y="216" fill="#F2F2F2" width="88" height="72"/>
	<rect x="264" y="72" fill="#F2F2F2" width="88" height="72"/>
	<rect x="352" y="432" fill="#F2F2F2" width="88" height="72"/>
	<rect x="352" y="288" fill="#F2F2F2" width="88" height="72"/>
	<rect x="352" y="144" fill="#F2F2F2" width="88" height="72"/>
	<rect x="352" y="0" fill="#F2F2F2" width="88" height="72"/>
	<rect x="440" y="504" fill="#F2F2F2" width="88" height="72"/>
	<rect x="440" y="360" fill="#F2F2F2" width="88" height="72"/>
	<rect x="440" y="216" fill="#F2F2F2" width="88" height="72"/>
	<rect x="440" y="72" fill="#F2F2F2" width="88" height="72"/>
	<rect x="528" y="432" fill="#F2F2F2" width="88" height="72"/>
	<rect x="528" y="288" fill="#F2F2F2" width="88" height="72"/>
	<rect x="528" y="144" fill="#F2F2F2" width="88" height="72"/>
	<rect x="528" y="0" fill="#F2F2F2" width="88" height="72"/>
	<rect x="616" y="504" fill="#F2F2F2" width="88" height="72"/>
	<rect x="616" y="360" fill="#F2F2F2" width="88" height="72"/>
	<rect x="616" y="216" fill="#F2F2F2" width="88" height="72"/>
	<rect x="616" y="72" fill="#F2F2F2" width="88" height="72"/>
</g>
<g id="fret_x5F_bg">
	<g>
		<rect x="72" y="102" fill="#FFFFFF" width="561" height="372"/>
	</g>
	<rect x="0" y="0" width="72" height="102"/>
</g>
<g id="frets">
	<g>
		<rect x="84" y="108" fill="#C7C8CA" width="8" height="360"/>
	</g>
	<g>
		<rect x="172" y="108" fill="#C7C8CA" width="8" height="360"/>
	</g>
	<g>
		<rect x="260" y="108" fill="#C7C8CA" width="8" height="360"/>
	</g>
	<g>
		<rect x="348" y="108" fill="#C7C8CA" width="8" height="360"/>
	</g>
	<g>
		<rect x="436" y="108" fill="#C7C8CA" width="8" height="360"/>
	</g>
	<g>
		<rect x="524" y="108" fill="#C7C8CA" width="8" height="360"/>
	</g>
	<g>
		<rect x="612" y="108" fill="#C7C8CA" width="8" height="360"/>
	</g>
</g>
<g id="strings">
	<g>
		<rect x="72" y="462" width="560" height="12"/>
	</g>
	<g>
		<rect x="72" y="390" width="560" height="12"/>
	</g>
	<g>
		<rect x="72" y="318" width="560" height="12"/>
	</g>
	<g>
		<rect x="72" y="246" width="560" height="12"/>
	</g>
	<g>
		<rect x="72" y="174" width="560" height="12"/>
	</g>
	<g>
		<rect x="72" y="102" width="560" height="12"/>
	</g>
</g>
<g id="dots">
	<circle fill="#27AAE1" cx="132" cy="468" r="32"/>
	<circle fill="#27AAE1" cx="132" cy="396" r="32"/>
	<circle fill="#27AAE1" cx="132" cy="324" r="32"/>
	<circle fill="#27AAE1" cx="132" cy="252" r="32"/>
	<circle fill="#27AAE1" cx="132" cy="180" r="32"/>
	<circle fill="#27AAE1" cx="132" cy="108" r="32"/>
	<circle fill="#27AAE1" cx="220" cy="468" r="32"/>
	<circle fill="#27AAE1" cx="220" cy="396" r="32"/>
	<circle fill="#27AAE1" cx="220" cy="324" r="32"/>
	<circle fill="#27AAE1" cx="220" cy="252" r="32"/>
	<circle fill="#27AAE1" cx="220" cy="180" r="32"/>
	<circle fill="#27AAE1" cx="220" cy="108" r="32"/>
	<circle fill="#27AAE1" cx="308" cy="468" r="32"/>
	<circle fill="#27AAE1" cx="308" cy="396" r="32"/>
	<circle fill="#27AAE1" cx="308" cy="324" r="32"/>
	<circle fill="#27AAE1" cx="308" cy="252" r="32"/>
	<circle fill="#27AAE1" cx="308" cy="180" r="32"/>
	<circle fill="#27AAE1" cx="308" cy="108" r="32"/>
	<circle fill="#27AAE1" cx="396" cy="468" r="32"/>
	<circle fill="#27AAE1" cx="396" cy="396" r="32"/>
	<circle fill="#27AAE1" cx="396" cy="324" r="32"/>
	<circle fill="#27AAE1" cx="396" cy="252" r="32"/>
	<circle fill="#27AAE1" cx="396" cy="180" r="32"/>
	<circle fill="#27AAE1" cx="396" cy="108" r="32"/>
	<circle fill="#27AAE1" cx="484" cy="468" r="32"/>
	<circle fill="#27AAE1" cx="484" cy="396" r="32"/>
	<circle fill="#27AAE1" cx="484" cy="324" r="32"/>
	<circle fill="#27AAE1" cx="484" cy="252" r="32"/>
	<circle fill="#27AAE1" cx="484" cy="180" r="32"/>
	<circle fill="#27AAE1" cx="484" cy="108" r="32"/>
	<circle fill="#27AAE1" cx="572" cy="468" r="32"/>
	<circle fill="#27AAE1" cx="572" cy="396" r="32"/>
	<circle fill="#27AAE1" cx="572" cy="324" r="32"/>
	<circle fill="#27AAE1" cx="572" cy="252" r="32"/>
	<circle fill="#27AAE1" cx="572" cy="180" r="32"/>
	<circle fill="#27AAE1" cx="572" cy="108" r="32"/>
</g>
<g id="nut">
	<rect x="72" y="106" width="20" height="368"/>
</g>
<g id="old_too_small" display="none">
</g>
<g id="old_with_strokes" display="none">
</g>
<g id="old_22x30" display="none">
</g>
<g id="artboards" display="none">
</g>
<g id="Dot" display="none">
</g>
</svg>
