<?xml version="1.0" encoding="utf-8"?>
<!-- Generator: Adobe Illustrator 17.1.0, SVG Export Plug-In . SVG Version: 6.00 Build 0)  -->
<!DOCTYPE svg PUBLIC "-//W3C//DTD SVG 1.1//EN" "http://www.w3.org/Graphics/SVG/1.1/DTD/svg11.dtd">
<svg version="1.1" xmlns="http://www.w3.org/2000/svg" xmlns:xlink="http://www.w3.org/1999/xlink" x="0px" y="0px"
	 viewBox="0 0 672 575.998" enable-background="new 0 0 672 575.998" xml:space="preserve">
<g id="Layer_1" display="none">
</g>
<g id="checkers">
	<rect x="0" y="503.998" fill="#E6E7E8" width="96" height="72"/>
	<rect x="0" y="359.998" fill="#E6E7E8" width="96" height="72"/>
	<rect x="0" y="215.998" fill="#E6E7E8" width="96" height="72"/>
	<rect x="0" y="71.998" fill="#E6E7E8" width="96" height="72"/>
	<rect x="96" y="-0.002" fill="#E6E7E8" width="96" height="72"/>
	<rect x="96" y="431.998" fill="#E6E7E8" width="96" height="72"/>
	<rect x="96" y="287.998" fill="#E6E7E8" width="96" height="72"/>
	<rect x="96" y="143.998" fill="#E6E7E8" width="96" height="72"/>
	<rect x="192" y="503.998" fill="#E6E7E8" width="96" height="72"/>
	<rect x="192" y="359.998" fill="#E6E7E8" width="96" height="72"/>
	<rect x="192" y="215.998" fill="#E6E7E8" width="96" height="72"/>
	<rect x="192" y="71.998" fill="#E6E7E8" width="96" height="72"/>
	<rect x="288" y="-0.002" fill="#E6E7E8" width="96" height="72"/>
	<rect x="288" y="431.998" fill="#E6E7E8" width="96" height="72"/>
	<rect x="288" y="287.998" fill="#E6E7E8" width="96" height="72"/>
	<rect x="288" y="143.998" fill="#E6E7E8" width="96" height="72"/>
	<rect x="384" y="503.998" fill="#E6E7E8" width="96" height="72"/>
	<rect x="384" y="359.998" fill="#E6E7E8" width="96" height="72"/>
	<rect x="384" y="215.998" fill="#E6E7E8" width="96" height="72"/>
	<rect x="384" y="71.998" fill="#E6E7E8" width="96" height="72"/>
	<rect x="480" y="-0.002" fill="#E6E7E8" width="96" height="72"/>
	<rect x="480" y="431.998" fill="#E6E7E8" width="96" height="72"/>
	<rect x="480" y="287.998" fill="#E6E7E8" width="96" height="72"/>
	<rect x="480" y="143.998" fill="#E6E7E8" width="96" height="72"/>
	<rect x="576" y="503.998" fill="#E6E7E8" width="96" height="72"/>
	<rect x="576" y="359.998" fill="#E6E7E8" width="96" height="72"/>
	<rect x="576" y="215.998" fill="#E6E7E8" width="96" height="72"/>
	<rect x="576" y="71.998" fill="#E6E7E8" width="96" height="72"/>
	<rect x="0" y="431.998" fill="#F2F2F2" width="96" height="72"/>
	<rect x="0" y="287.998" fill="#F2F2F2" width="96" height="72"/>
	<rect x="0" y="143.998" fill="#F2F2F2" width="96" height="72"/>
	<rect x="0" y="-0.002" fill="#F2F2F2" width="96" height="72"/>
	<rect x="96" y="503.998" fill="#F2F2F2" width="96" height="72"/>
	<rect x="96" y="359.998" fill="#F2F2F2" width="96" height="72"/>
	<rect x="96" y="215.998" fill="#F2F2F2" width="96" height="72"/>
	<rect x="96" y="71.998" fill="#F2F2F2" width="96" height="72"/>
	<rect x="192" y="431.998" fill="#F2F2F2" width="96" height="72"/>
	<rect x="192" y="287.998" fill="#F2F2F2" width="96" height="72"/>
	<rect x="192" y="143.998" fill="#F2F2F2" width="96" height="72"/>
	<rect x="192" y="-0.002" fill="#F2F2F2" width="96" height="72"/>
	<rect x="288" y="503.998" fill="#F2F2F2" width="96" height="72"/>
	<rect x="288" y="359.998" fill="#F2F2F2" width="96" height="72"/>
	<rect x="288" y="215.998" fill="#F2F2F2" width="96" height="72"/>
	<rect x="288" y="71.998" fill="#F2F2F2" width="96" height="72"/>
	<rect x="384" y="431.998" fill="#F2F2F2" width="96" height="72"/>
	<rect x="384" y="287.998" fill="#F2F2F2" width="96" height="72"/>
	<rect x="384" y="143.998" fill="#F2F2F2" width="96" height="72"/>
	<rect x="384" y="-0.002" fill="#F2F2F2" width="96" height="72"/>
	<rect x="480" y="503.998" fill="#F2F2F2" width="96" height="72"/>
	<rect x="480" y="359.998" fill="#F2F2F2" width="96" height="72"/>
	<rect x="480" y="215.998" fill="#F2F2F2" width="96" height="72"/>
	<rect x="480" y="71.998" fill="#F2F2F2" width="96" height="72"/>
	<rect x="576" y="431.998" fill="#F2F2F2" width="96" height="72"/>
	<rect x="576" y="287.998" fill="#F2F2F2" width="96" height="72"/>
	<rect x="576" y="143.998" fill="#F2F2F2" width="96" height="72"/>
	<rect x="576" y="-0.002" fill="#F2F2F2" width="96" height="72"/>
</g>
<g id="fret_x5F_bg">
	<g>
		<rect x="80" y="101.998" fill="#FFFFFF" width="512" height="372"/>
	</g>
</g>
<g id="frets">
	<g>
		<rect x="92" y="107.998" fill="#C7C8CA" width="8" height="360"/>
	</g>
	<g>
		<rect x="188" y="107.998" fill="#C7C8CA" width="8" height="360"/>
	</g>
	<g>
		<rect x="284" y="107.998" fill="#C7C8CA" width="8" height="360"/>
	</g>
	<g>
		<rect x="380" y="107.998" fill="#C7C8CA" width="8" height="360"/>
	</g>
	<g>
		<rect x="476" y="107.998" fill="#C7C8CA" width="8" height="360"/>
	</g>
	<g>
		<rect x="572" y="107.998" fill="#C7C8CA" width="8" height="360"/>
	</g>
</g>
<g id="strings">
	<g>
		<rect x="80" y="461.998" width="512" height="12"/>
	</g>
	<g>
		<rect x="80" y="389.998" width="512" height="12"/>
	</g>
	<g>
		<rect x="80" y="317.998" width="512" height="12"/>
	</g>
	<g>
		<rect x="80" y="245.998" width="512" height="12"/>
	</g>
	<g>
		<rect x="80" y="173.998" width="512" height="12"/>
	</g>
	<g>
		<rect x="80" y="101.998" width="512" height="12"/>
	</g>
</g>
<g id="dots">
	<circle fill="#27AAE1" cx="144" cy="467.998" r="32"/>
	<circle fill="#27AAE1" cx="144" cy="395.998" r="32"/>
	<circle fill="#27AAE1" cx="144" cy="323.998" r="32"/>
	<circle fill="#27AAE1" cx="144" cy="251.998" r="32"/>
	<circle fill="#27AAE1" cx="144" cy="179.998" r="32"/>
	<circle fill="#27AAE1" cx="144" cy="107.998" r="32"/>
	<circle fill="#27AAE1" cx="240" cy="467.998" r="32"/>
	<circle fill="#27AAE1" cx="240" cy="395.998" r="32"/>
	<circle fill="#27AAE1" cx="240" cy="323.998" r="32"/>
	<circle fill="#27AAE1" cx="240" cy="251.998" r="32"/>
	<circle fill="#27AAE1" cx="240" cy="179.998" r="32"/>
	<circle fill="#27AAE1" cx="240" cy="107.998" r="32"/>
	<circle fill="#27AAE1" cx="336" cy="467.998" r="32"/>
	<circle fill="#27AAE1" cx="336" cy="395.998" r="32"/>
	<circle fill="#27AAE1" cx="336" cy="323.998" r="32"/>
	<circle fill="#27AAE1" cx="336" cy="251.998" r="32"/>
	<circle fill="#27AAE1" cx="336" cy="179.998" r="32"/>
	<circle fill="#27AAE1" cx="336" cy="107.998" r="32"/>
	<circle fill="#27AAE1" cx="432" cy="467.998" r="32"/>
	<circle fill="#27AAE1" cx="432" cy="395.998" r="32"/>
	<circle fill="#27AAE1" cx="432" cy="323.998" r="32"/>
	<circle fill="#27AAE1" cx="432" cy="251.998" r="32"/>
	<circle fill="#27AAE1" cx="432" cy="179.998" r="32"/>
	<circle fill="#27AAE1" cx="432" cy="107.998" r="32"/>
	<circle fill="#27AAE1" cx="528" cy="467.998" r="32"/>
	<circle fill="#27AAE1" cx="528" cy="395.998" r="32"/>
	<circle fill="#27AAE1" cx="528" cy="323.998" r="32"/>
	<circle fill="#27AAE1" cx="528" cy="251.998" r="32"/>
	<circle fill="#27AAE1" cx="528" cy="179.998" r="32"/>
	<circle fill="#27AAE1" cx="528" cy="107.998" r="32"/>
</g>
<g id="nut">
	<rect x="80" y="103.998" width="20" height="368"/>
</g>
<g id="old_too_small" display="none">
</g>
<g id="old_with_strokes" display="none">
</g>
<g id="old_22x30" display="none">
</g>
<g id="artboards" display="none">
</g>
<g id="Dot" display="none">
</g>
</svg>
