<?xml version="1.0" encoding="utf-8"?>
<!-- Generator: Adobe Illustrator 17.1.0, SVG Export Plug-In . SVG Version: 6.00 Build 0)  -->
<!DOCTYPE svg PUBLIC "-//W3C//DTD SVG 1.1//EN" "http://www.w3.org/Graphics/SVG/1.1/DTD/svg11.dtd">
<svg version="1.1" xmlns="http://www.w3.org/2000/svg" xmlns:xlink="http://www.w3.org/1999/xlink" x="0px" y="0px"
	 viewBox="0 0 616 575.998" enable-background="new 0 0 616 575.998" xml:space="preserve">
<g id="Layer_1" display="none">
</g>
<g id="checkers">
	<rect x="-48" y="503.998" fill="#E6E7E8" width="96" height="72"/>
	<rect x="-48" y="359.998" fill="#E6E7E8" width="96" height="72"/>
	<rect x="-48" y="215.998" fill="#E6E7E8" width="96" height="72"/>
	<rect x="-48" y="71.998" fill="#E6E7E8" width="96" height="72"/>
	<rect x="48" y="-0.002" fill="#E6E7E8" width="96" height="72"/>
	<rect x="48" y="431.998" fill="#E6E7E8" width="96" height="72"/>
	<rect x="48" y="287.998" fill="#E6E7E8" width="96" height="72"/>
	<rect x="48" y="143.998" fill="#E6E7E8" width="96" height="72"/>
	<rect x="144" y="503.998" fill="#E6E7E8" width="96" height="72"/>
	<rect x="144" y="359.998" fill="#E6E7E8" width="96" height="72"/>
	<rect x="144" y="215.998" fill="#E6E7E8" width="96" height="72"/>
	<rect x="144" y="71.998" fill="#E6E7E8" width="96" height="72"/>
	<rect x="240" y="-0.002" fill="#E6E7E8" width="96" height="72"/>
	<rect x="240" y="431.998" fill="#E6E7E8" width="96" height="72"/>
	<rect x="240" y="287.998" fill="#E6E7E8" width="96" height="72"/>
	<rect x="240" y="143.998" fill="#E6E7E8" width="96" height="72"/>
	<rect x="336" y="503.998" fill="#E6E7E8" width="96" height="72"/>
	<rect x="336" y="359.998" fill="#E6E7E8" width="96" height="72"/>
	<rect x="336" y="215.998" fill="#E6E7E8" width="96" height="72"/>
	<rect x="336" y="71.998" fill="#E6E7E8" width="96" height="72"/>
	<rect x="432" y="-0.002" fill="#E6E7E8" width="96" height="72"/>
	<rect x="432" y="431.998" fill="#E6E7E8" width="96" height="72"/>
	<rect x="432" y="287.998" fill="#E6E7E8" width="96" height="72"/>
	<rect x="432" y="143.998" fill="#E6E7E8" width="96" height="72"/>
	<rect x="528" y="503.998" fill="#E6E7E8" width="96" height="72"/>
	<rect x="528" y="359.998" fill="#E6E7E8" width="96" height="72"/>
	<rect x="528" y="215.998" fill="#E6E7E8" width="96" height="72"/>
	<rect x="528" y="71.998" fill="#E6E7E8" width="96" height="72"/>
	<rect x="-48" y="431.998" fill="#F2F2F2" width="96" height="72"/>
	<rect x="-48" y="287.998" fill="#F2F2F2" width="96" height="72"/>
	<rect x="-48" y="143.998" fill="#F2F2F2" width="96" height="72"/>
	<rect x="-48" y="-0.002" fill="#F2F2F2" width="96" height="72"/>
	<rect x="48" y="503.998" fill="#F2F2F2" width="96" height="72"/>
	<rect x="48" y="359.998" fill="#F2F2F2" width="96" height="72"/>
	<rect x="48" y="215.998" fill="#F2F2F2" width="96" height="72"/>
	<rect x="48" y="71.998" fill="#F2F2F2" width="96" height="72"/>
	<rect x="144" y="431.998" fill="#F2F2F2" width="96" height="72"/>
	<rect x="144" y="287.998" fill="#F2F2F2" width="96" height="72"/>
	<rect x="144" y="143.998" fill="#F2F2F2" width="96" height="72"/>
	<rect x="144" y="-0.002" fill="#F2F2F2" width="96" height="72"/>
	<rect x="240" y="503.998" fill="#F2F2F2" width="96" height="72"/>
	<rect x="240" y="359.998" fill="#F2F2F2" width="96" height="72"/>
	<rect x="240" y="215.998" fill="#F2F2F2" width="96" height="72"/>
	<rect x="240" y="71.998" fill="#F2F2F2" width="96" height="72"/>
	<rect x="336" y="431.998" fill="#F2F2F2" width="96" height="72"/>
	<rect x="336" y="287.998" fill="#F2F2F2" width="96" height="72"/>
	<rect x="336" y="143.998" fill="#F2F2F2" width="96" height="72"/>
	<rect x="336" y="-0.002" fill="#F2F2F2" width="96" height="72"/>
	<rect x="432" y="503.998" fill="#F2F2F2" width="96" height="72"/>
	<rect x="432" y="359.998" fill="#F2F2F2" width="96" height="72"/>
	<rect x="432" y="215.998" fill="#F2F2F2" width="96" height="72"/>
	<rect x="432" y="71.998" fill="#F2F2F2" width="96" height="72"/>
	<rect x="528" y="431.998" fill="#F2F2F2" width="96" height="72"/>
	<rect x="528" y="287.998" fill="#F2F2F2" width="96" height="72"/>
	<rect x="528" y="143.998" fill="#F2F2F2" width="96" height="72"/>
	<rect x="528" y="-0.002" fill="#F2F2F2" width="96" height="72"/>
</g>
<g id="fret_x5F_bg">
	<g>
		<rect x="32" y="101.998" fill="#FFFFFF" width="512" height="372"/>
	</g>
</g>
<g id="frets">
	<g>
		<rect x="44" y="107.998" fill="#C7C8CA" width="8" height="360"/>
	</g>
	<g>
		<rect x="140" y="107.998" fill="#C7C8CA" width="8" height="360"/>
	</g>
	<g>
		<rect x="236" y="107.998" fill="#C7C8CA" width="8" height="360"/>
	</g>
	<g>
		<rect x="332" y="107.998" fill="#C7C8CA" width="8" height="360"/>
	</g>
	<g>
		<rect x="428" y="107.998" fill="#C7C8CA" width="8" height="360"/>
	</g>
	<g>
		<rect x="524" y="107.998" fill="#C7C8CA" width="8" height="360"/>
	</g>
</g>
<g id="strings">
	<g>
		<rect x="32" y="461.998" width="512" height="12"/>
	</g>
	<g>
		<rect x="32" y="389.998" width="512" height="12"/>
	</g>
	<g>
		<rect x="32" y="317.998" width="512" height="12"/>
	</g>
	<g>
		<rect x="32" y="245.998" width="512" height="12"/>
	</g>
	<g>
		<rect x="32" y="173.998" width="512" height="12"/>
	</g>
	<g>
		<rect x="32" y="101.998" width="512" height="12"/>
	</g>
</g>
<g id="dots">
	<circle fill="#27AAE1" cx="96" cy="467.998" r="32"/>
	<circle fill="#27AAE1" cx="96" cy="395.998" r="32"/>
	<circle fill="#27AAE1" cx="96" cy="323.998" r="32"/>
	<circle fill="#27AAE1" cx="96" cy="251.998" r="32"/>
	<circle fill="#27AAE1" cx="96" cy="179.998" r="32"/>
	<circle fill="#27AAE1" cx="96" cy="107.998" r="32"/>
	<circle fill="#27AAE1" cx="192" cy="467.998" r="32"/>
	<circle fill="#27AAE1" cx="192" cy="395.998" r="32"/>
	<circle fill="#27AAE1" cx="192" cy="323.998" r="32"/>
	<circle fill="#27AAE1" cx="192" cy="251.998" r="32"/>
	<circle fill="#27AAE1" cx="192" cy="179.998" r="32"/>
	<circle fill="#27AAE1" cx="192" cy="107.998" r="32"/>
	<circle fill="#27AAE1" cx="288" cy="467.998" r="32"/>
	<circle fill="#27AAE1" cx="288" cy="395.998" r="32"/>
	<circle fill="#27AAE1" cx="288" cy="323.998" r="32"/>
	<circle fill="#27AAE1" cx="288" cy="251.998" r="32"/>
	<circle fill="#27AAE1" cx="288" cy="179.998" r="32"/>
	<circle fill="#27AAE1" cx="288" cy="107.998" r="32"/>
	<circle fill="#27AAE1" cx="384" cy="467.998" r="32"/>
	<circle fill="#27AAE1" cx="384" cy="395.998" r="32"/>
	<circle fill="#27AAE1" cx="384" cy="323.998" r="32"/>
	<circle fill="#27AAE1" cx="384" cy="251.998" r="32"/>
	<circle fill="#27AAE1" cx="384" cy="179.998" r="32"/>
	<circle fill="#27AAE1" cx="384" cy="107.998" r="32"/>
	<circle fill="#27AAE1" cx="480" cy="467.998" r="32"/>
	<circle fill="#27AAE1" cx="480" cy="395.998" r="32"/>
	<circle fill="#27AAE1" cx="480" cy="323.998" r="32"/>
	<circle fill="#27AAE1" cx="480" cy="251.998" r="32"/>
	<circle fill="#27AAE1" cx="480" cy="179.998" r="32"/>
	<circle fill="#27AAE1" cx="480" cy="107.998" r="32"/>
</g>
<g id="nut">
	<rect x="32" y="103.998" width="20" height="368"/>
</g>
<g id="old_too_small" display="none">
</g>
<g id="old_with_strokes" display="none">
</g>
<g id="old_22x30" display="none">
</g>
<g id="artboards" display="none">
</g>
<g id="Dot" display="none">
</g>
</svg>
