<?xml version="1.0" encoding="utf-8"?>
<!-- Generator: Adobe Illustrator 17.1.0, SVG Export Plug-In . SVG Version: 6.00 Build 0)  -->
<!DOCTYPE svg PUBLIC "-//W3C//DTD SVG 1.1//EN" "http://www.w3.org/Graphics/SVG/1.1/DTD/svg11.dtd">
<svg version="1.1" xmlns="http://www.w3.org/2000/svg" xmlns:xlink="http://www.w3.org/1999/xlink" x="0px" y="0px"
	 viewBox="0 0 576 1232" enable-background="new 0 0 576 1232" xml:space="preserve">
<g id="Layer_1" display="none">
</g>
<g id="checkers">
	<rect fill="#E6E7E8" width="72" height="88"/>
	<rect x="144" fill="#E6E7E8" width="72" height="88"/>
	<rect x="288" fill="#E6E7E8" width="72" height="88"/>
	<rect x="432" fill="#E6E7E8" width="72" height="88"/>
	<rect x="504" y="88" fill="#E6E7E8" width="72" height="88"/>
	<rect x="72" y="88" fill="#E6E7E8" width="72" height="88"/>
	<rect x="216" y="88" fill="#E6E7E8" width="72" height="88"/>
	<rect x="360" y="88" fill="#E6E7E8" width="72" height="88"/>
	<rect y="176" fill="#E6E7E8" width="72" height="88"/>
	<rect x="144" y="176" fill="#E6E7E8" width="72" height="88"/>
	<rect x="288" y="176" fill="#E6E7E8" width="72" height="88"/>
	<rect x="432" y="176" fill="#E6E7E8" width="72" height="88"/>
	<rect x="504" y="264" fill="#E6E7E8" width="72" height="88"/>
	<rect x="72" y="264" fill="#E6E7E8" width="72" height="88"/>
	<rect x="216" y="264" fill="#E6E7E8" width="72" height="88"/>
	<rect x="360" y="264" fill="#E6E7E8" width="72" height="88"/>
	<rect y="352" fill="#E6E7E8" width="72" height="88"/>
	<rect x="144" y="352" fill="#E6E7E8" width="72" height="88"/>
	<rect x="288" y="352" fill="#E6E7E8" width="72" height="88"/>
	<rect x="432" y="352" fill="#E6E7E8" width="72" height="88"/>
	<rect x="504" y="440" fill="#E6E7E8" width="72" height="88"/>
	<rect x="72" y="440" fill="#E6E7E8" width="72" height="88"/>
	<rect x="216" y="440" fill="#E6E7E8" width="72" height="88"/>
	<rect x="360" y="440" fill="#E6E7E8" width="72" height="88"/>
	<rect y="528" fill="#E6E7E8" width="72" height="88"/>
	<rect x="144" y="528" fill="#E6E7E8" width="72" height="88"/>
	<rect x="288" y="528" fill="#E6E7E8" width="72" height="88"/>
	<rect x="432" y="528" fill="#E6E7E8" width="72" height="88"/>
	<rect x="504" y="616" fill="#E6E7E8" width="72" height="88"/>
	<rect x="72" y="616" fill="#E6E7E8" width="72" height="88"/>
	<rect x="216" y="616" fill="#E6E7E8" width="72" height="88"/>
	<rect x="360" y="616" fill="#E6E7E8" width="72" height="88"/>
	<rect y="704" fill="#E6E7E8" width="72" height="88"/>
	<rect x="144" y="704" fill="#E6E7E8" width="72" height="88"/>
	<rect x="288" y="704" fill="#E6E7E8" width="72" height="88"/>
	<rect x="432" y="704" fill="#E6E7E8" width="72" height="88"/>
	<rect x="504" y="792" fill="#E6E7E8" width="72" height="88"/>
	<rect x="72" y="792" fill="#E6E7E8" width="72" height="88"/>
	<rect x="216" y="792" fill="#E6E7E8" width="72" height="88"/>
	<rect x="360" y="792" fill="#E6E7E8" width="72" height="88"/>
	<rect y="880" fill="#E6E7E8" width="72" height="88"/>
	<rect x="144" y="880" fill="#E6E7E8" width="72" height="88"/>
	<rect x="288" y="880" fill="#E6E7E8" width="72" height="88"/>
	<rect x="432" y="880" fill="#E6E7E8" width="72" height="88"/>
	<rect x="504" y="968" fill="#E6E7E8" width="72" height="88"/>
	<rect x="72" y="968" fill="#E6E7E8" width="72" height="88"/>
	<rect x="216" y="968" fill="#E6E7E8" width="72" height="88"/>
	<rect x="360" y="968" fill="#E6E7E8" width="72" height="88"/>
	<rect y="1056" fill="#E6E7E8" width="72" height="88"/>
	<rect x="144" y="1056" fill="#E6E7E8" width="72" height="88"/>
	<rect x="288" y="1056" fill="#E6E7E8" width="72" height="88"/>
	<rect x="432" y="1056" fill="#E6E7E8" width="72" height="88"/>
	<rect x="504" y="1144" fill="#E6E7E8" width="72" height="88"/>
	<rect x="72" y="1144" fill="#E6E7E8" width="72" height="88"/>
	<rect x="216" y="1144" fill="#E6E7E8" width="72" height="88"/>
	<rect x="360" y="1144" fill="#E6E7E8" width="72" height="88"/>
	<rect x="72" fill="#F2F2F2" width="72" height="88"/>
	<rect x="216" fill="#F2F2F2" width="72" height="88"/>
	<rect x="360" fill="#F2F2F2" width="72" height="88"/>
	<rect x="504" fill="#F2F2F2" width="72" height="88"/>
	<rect y="88" fill="#F2F2F2" width="72" height="88"/>
	<rect x="144" y="88" fill="#F2F2F2" width="72" height="88"/>
	<rect x="288" y="88" fill="#F2F2F2" width="72" height="88"/>
	<rect x="432" y="88" fill="#F2F2F2" width="72" height="88"/>
	<rect x="72" y="176" fill="#F2F2F2" width="72" height="88"/>
	<rect x="216" y="176" fill="#F2F2F2" width="72" height="88"/>
	<rect x="360" y="176" fill="#F2F2F2" width="72" height="88"/>
	<rect x="504" y="176" fill="#F2F2F2" width="72" height="88"/>
	<rect y="264" fill="#F2F2F2" width="72" height="88"/>
	<rect x="144" y="264" fill="#F2F2F2" width="72" height="88"/>
	<rect x="288" y="264" fill="#F2F2F2" width="72" height="88"/>
	<rect x="432" y="264" fill="#F2F2F2" width="72" height="88"/>
	<rect x="72" y="352" fill="#F2F2F2" width="72" height="88"/>
	<rect x="216" y="352" fill="#F2F2F2" width="72" height="88"/>
	<rect x="360" y="352" fill="#F2F2F2" width="72" height="88"/>
	<rect x="504" y="352" fill="#F2F2F2" width="72" height="88"/>
	<rect y="440" fill="#F2F2F2" width="72" height="88"/>
	<rect x="144" y="440" fill="#F2F2F2" width="72" height="88"/>
	<rect x="288" y="440" fill="#F2F2F2" width="72" height="88"/>
	<rect x="432" y="440" fill="#F2F2F2" width="72" height="88"/>
	<rect x="72" y="528" fill="#F2F2F2" width="72" height="88"/>
	<rect x="216" y="528" fill="#F2F2F2" width="72" height="88"/>
	<rect x="360" y="528" fill="#F2F2F2" width="72" height="88"/>
	<rect x="504" y="528" fill="#F2F2F2" width="72" height="88"/>
	<rect y="616" fill="#F2F2F2" width="72" height="88"/>
	<rect x="144" y="616" fill="#F2F2F2" width="72" height="88"/>
	<rect x="288" y="616" fill="#F2F2F2" width="72" height="88"/>
	<rect x="432" y="616" fill="#F2F2F2" width="72" height="88"/>
	<rect x="72" y="704" fill="#F2F2F2" width="72" height="88"/>
	<rect x="216" y="704" fill="#F2F2F2" width="72" height="88"/>
	<rect x="360" y="704" fill="#F2F2F2" width="72" height="88"/>
	<rect x="504" y="704" fill="#F2F2F2" width="72" height="88"/>
	<rect y="792" fill="#F2F2F2" width="72" height="88"/>
	<rect x="144" y="792" fill="#F2F2F2" width="72" height="88"/>
	<rect x="288" y="792" fill="#F2F2F2" width="72" height="88"/>
	<rect x="432" y="792" fill="#F2F2F2" width="72" height="88"/>
	<rect x="72" y="880" fill="#F2F2F2" width="72" height="88"/>
	<rect x="216" y="880" fill="#F2F2F2" width="72" height="88"/>
	<rect x="360" y="880" fill="#F2F2F2" width="72" height="88"/>
	<rect x="504" y="880" fill="#F2F2F2" width="72" height="88"/>
	<rect y="968" fill="#F2F2F2" width="72" height="88"/>
	<rect x="144" y="968" fill="#F2F2F2" width="72" height="88"/>
	<rect x="288" y="968" fill="#F2F2F2" width="72" height="88"/>
	<rect x="432" y="968" fill="#F2F2F2" width="72" height="88"/>
	<rect x="72" y="1056" fill="#F2F2F2" width="72" height="88"/>
	<rect x="216" y="1056" fill="#F2F2F2" width="72" height="88"/>
	<rect x="360" y="1056" fill="#F2F2F2" width="72" height="88"/>
	<rect x="504" y="1056" fill="#F2F2F2" width="72" height="88"/>
	<rect y="1144" fill="#F2F2F2" width="72" height="88"/>
	<rect x="144" y="1144" fill="#F2F2F2" width="72" height="88"/>
	<rect x="288" y="1144" fill="#F2F2F2" width="72" height="88"/>
	<rect x="432" y="1144" fill="#F2F2F2" width="72" height="88"/>
</g>
<g id="fret_x5F_bg">
	<g>
		<rect x="102" y="72" fill="#FFFFFF" width="372" height="1088"/>
	</g>
</g>
<g id="frets">
	<g>
		<rect x="108" y="84" fill="#C7C8CA" width="360" height="8"/>
	</g>
	<g>
		<rect x="108" y="172" fill="#C7C8CA" width="360" height="8"/>
	</g>
	<g>
		<rect x="108" y="260" fill="#C7C8CA" width="360" height="8"/>
	</g>
	<g>
		<rect x="108" y="348" fill="#C7C8CA" width="360" height="8"/>
	</g>
	<g>
		<rect x="108" y="436" fill="#C7C8CA" width="360" height="8"/>
	</g>
	<g>
		<rect x="108" y="524" fill="#C7C8CA" width="360" height="8"/>
	</g>
	<g>
		<rect x="108" y="612" fill="#C7C8CA" width="360" height="8"/>
	</g>
	<g>
		<rect x="108" y="700" fill="#C7C8CA" width="360" height="8"/>
	</g>
	<g>
		<rect x="108" y="788" fill="#C7C8CA" width="360" height="8"/>
	</g>
	<g>
		<rect x="108" y="876" fill="#C7C8CA" width="360" height="8"/>
	</g>
	<g>
		<rect x="108" y="964" fill="#C7C8CA" width="360" height="8"/>
	</g>
	<g>
		<rect x="108" y="1052" fill="#C7C8CA" width="360" height="8"/>
	</g>
	<g>
		<rect x="108" y="1140" fill="#C7C8CA" width="360" height="8"/>
	</g>
</g>
<g id="strings">
	<g>
		<rect x="102" y="72" width="12" height="1088"/>
	</g>
	<g>
		<rect x="174" y="72" width="12" height="1088"/>
	</g>
	<g>
		<rect x="246" y="72" width="12" height="1088"/>
	</g>
	<g>
		<rect x="318" y="72" width="12" height="1088"/>
	</g>
	<g>
		<rect x="390" y="72" width="12" height="1088"/>
	</g>
	<g>
		<rect x="462" y="72" width="12" height="1088"/>
	</g>
</g>
<g id="dots">
	<circle fill="#27AAE1" cx="108" cy="132" r="32"/>
	<circle fill="#27AAE1" cx="180" cy="132" r="32"/>
	<circle fill="#27AAE1" cx="252" cy="132" r="32"/>
	<circle fill="#27AAE1" cx="324" cy="132" r="32"/>
	<circle fill="#27AAE1" cx="396" cy="132" r="32"/>
	<circle fill="#27AAE1" cx="468" cy="132" r="32"/>
	<circle fill="#27AAE1" cx="108" cy="220" r="32"/>
	<circle fill="#27AAE1" cx="180" cy="220" r="32"/>
	<circle fill="#27AAE1" cx="252" cy="220" r="32"/>
	<circle fill="#27AAE1" cx="324" cy="220" r="32"/>
	<circle fill="#27AAE1" cx="396" cy="220" r="32"/>
	<circle fill="#27AAE1" cx="468" cy="220" r="32"/>
	<circle fill="#27AAE1" cx="108" cy="308" r="32"/>
	<circle fill="#27AAE1" cx="180" cy="308" r="32"/>
	<circle fill="#27AAE1" cx="252" cy="308" r="32"/>
	<circle fill="#27AAE1" cx="324" cy="308" r="32"/>
	<circle fill="#27AAE1" cx="396" cy="308" r="32"/>
	<circle fill="#27AAE1" cx="468" cy="308" r="32"/>
	<circle fill="#27AAE1" cx="108" cy="396" r="32"/>
	<circle fill="#27AAE1" cx="180" cy="396" r="32"/>
	<circle fill="#27AAE1" cx="252" cy="396" r="32"/>
	<circle fill="#27AAE1" cx="324" cy="396" r="32"/>
	<circle fill="#27AAE1" cx="396" cy="396" r="32"/>
	<circle fill="#27AAE1" cx="468" cy="396" r="32"/>
	<circle fill="#27AAE1" cx="108" cy="484" r="32"/>
	<circle fill="#27AAE1" cx="180" cy="484" r="32"/>
	<circle fill="#27AAE1" cx="252" cy="484" r="32"/>
	<circle fill="#27AAE1" cx="324" cy="484" r="32"/>
	<circle fill="#27AAE1" cx="396" cy="484" r="32"/>
	<circle fill="#27AAE1" cx="468" cy="484" r="32"/>
	<circle fill="#27AAE1" cx="108" cy="572" r="32"/>
	<circle fill="#27AAE1" cx="180" cy="572" r="32"/>
	<circle fill="#27AAE1" cx="252" cy="572" r="32"/>
	<circle fill="#27AAE1" cx="324" cy="572" r="32"/>
	<circle fill="#27AAE1" cx="396" cy="572" r="32"/>
	<circle fill="#27AAE1" cx="468" cy="572" r="32"/>
	<circle fill="#27AAE1" cx="108" cy="660" r="32"/>
	<circle fill="#27AAE1" cx="180" cy="660" r="32"/>
	<circle fill="#27AAE1" cx="252" cy="660" r="32"/>
	<circle fill="#27AAE1" cx="324" cy="660" r="32"/>
	<circle fill="#27AAE1" cx="396" cy="660" r="32"/>
	<circle fill="#27AAE1" cx="468" cy="660" r="32"/>
	<circle fill="#27AAE1" cx="108" cy="748" r="32"/>
	<circle fill="#27AAE1" cx="180" cy="748" r="32"/>
	<circle fill="#27AAE1" cx="252" cy="748" r="32"/>
	<circle fill="#27AAE1" cx="324" cy="748" r="32"/>
	<circle fill="#27AAE1" cx="396" cy="748" r="32"/>
	<circle fill="#27AAE1" cx="468" cy="748" r="32"/>
	<circle fill="#27AAE1" cx="108" cy="836" r="32"/>
	<circle fill="#27AAE1" cx="180" cy="836" r="32"/>
	<circle fill="#27AAE1" cx="252" cy="836" r="32"/>
	<circle fill="#27AAE1" cx="324" cy="836" r="32"/>
	<circle fill="#27AAE1" cx="396" cy="836" r="32"/>
	<circle fill="#27AAE1" cx="468" cy="836" r="32"/>
	<circle fill="#27AAE1" cx="108" cy="924" r="32"/>
	<circle fill="#27AAE1" cx="180" cy="924" r="32"/>
	<circle fill="#27AAE1" cx="252" cy="924" r="32"/>
	<circle fill="#27AAE1" cx="324" cy="924" r="32"/>
	<circle fill="#27AAE1" cx="396" cy="924" r="32"/>
	<circle fill="#27AAE1" cx="468" cy="924" r="32"/>
	<circle fill="#27AAE1" cx="108" cy="1012" r="32"/>
	<circle fill="#27AAE1" cx="180" cy="1012" r="32"/>
	<circle fill="#27AAE1" cx="252" cy="1012" r="32"/>
	<circle fill="#27AAE1" cx="324" cy="1012" r="32"/>
	<circle fill="#27AAE1" cx="396" cy="1012" r="32"/>
	<circle fill="#27AAE1" cx="468" cy="1012" r="32"/>
	<circle fill="#27AAE1" cx="108" cy="1100" r="32"/>
	<circle fill="#27AAE1" cx="180" cy="1100" r="32"/>
	<circle fill="#27AAE1" cx="252" cy="1100" r="32"/>
	<circle fill="#27AAE1" cx="324" cy="1100" r="32"/>
	<circle fill="#27AAE1" cx="396" cy="1100" r="32"/>
	<circle fill="#27AAE1" cx="468" cy="1100" r="32"/>
</g>
<g id="nut">
	<rect x="104" y="72" width="368" height="20"/>
</g>
<g id="old_too_small" display="none">
</g>
<g id="old_with_strokes" display="none">
</g>
<g id="old_22x30" display="none">
</g>
<g id="artboards" display="none">
	<rect display="inline" fill="#FFF200" width="576" height="1232"/>
</g>
<g id="Dot" display="none">
</g>
</svg>
