<?xml version="1.0" encoding="utf-8"?>
<!-- Generator: Adobe Illustrator 17.1.0, SVG Export Plug-In . SVG Version: 6.00 Build 0)  -->
<!DOCTYPE svg PUBLIC "-//W3C//DTD SVG 1.1//EN" "http://www.w3.org/Graphics/SVG/1.1/DTD/svg11.dtd">
<svg version="1.1" id="Layer_1" xmlns="http://www.w3.org/2000/svg" xmlns:xlink="http://www.w3.org/1999/xlink" x="0px" y="0px"
	 viewBox="0 0 72 88" enable-background="new 0 0 72 88" xml:space="preserve">
<g>
	<g>
		<path fill="#27AAE1" d="M36,21c6.065,0,11,4.935,11,11s-4.935,11-11,11s-11-4.935-11-11S29.935,21,36,21 M36,14c-9.94,0-18,8.06-18,18s8.06,18,18,18s18-8.06,18-18S45.94,14,36,14L36,14z"/>
	</g>
</g>
<path display="none" fill="#27AAE1" d="M51.067,41.831L41.236,32l9.831-9.831c-1.365-2.087-3.149-3.871-5.236-5.236L36,26.764
	l-9.831-9.831c-2.087,1.365-3.871,3.149-5.236,5.236L30.764,32l-9.831,9.831c1.365,2.087,3.149,3.871,5.236,5.236L36,37.236
	l9.831,9.831C47.918,45.702,49.702,43.918,51.067,41.831z"/>
</svg>
