<svg version="1.1" xmlns="http://www.w3.org/2000/svg" xmlns:xlink="http://www.w3.org/1999/xlink" x="0px" y="0px" viewBox="0 0 72 88" enable-background="new 0 0 72 88" xml:space="preserve">
  <path fill="#939598" d="M36,33c6.065,0,11,4.935,11,11s-4.935,11-11,11s-11-4.935-11-11S29.935,33,36,33 M36,26c-9.94,0-18,8.06-18,18s8.06,18,18,18s18-8.06,18-18S45.94,26,36,26L36,26z"/>
  <path fill="#939598" d="M51.067,53.831L41.236,44l9.831-9.831c-1.365-2.087-3.149-3.871-5.236-5.236L36,38.764l-9.831-9.831c-2.087,1.365-3.871,3.149-5.236,5.236L30.764,44l-9.831,9.831c1.365,2.087,3.149,3.871,5.236,5.236L36,49.236l9.831,9.831C47.918,57.702,49.702,55.918,51.067,53.831z"/>
</svg>
